<svg xmlns="http://www.w3.org/2000/svg" width="40" height="40" viewBox="0 0 40 40">
    <g fill="#63666A" fill-rule="evenodd">
        <path d="M38.591 16.041c-.778 0-1.408.64-1.408 1.429v19.674H2.817V17.47c0-.789-.63-1.429-1.408-1.429A1.42 1.42 0 0 0 0 17.47v21.102C0 39.362.631 40 1.409 40H38.59C39.37 40 40 39.361 40 38.572V17.47c0-.789-.631-1.429-1.409-1.429"/>
        <path d="M19.502 26.581a1.42 1.42 0 0 0 1.992 0l6.08-5.986c.55-.542.55-1.42 0-1.962a1.425 1.425 0 0 0-1.992 0l-3.676 3.619.001-20.865C21.907.621 21.277 0 20.5 0c-.778 0-1.409.621-1.409 1.387v20.865l-3.672-3.615a1.424 1.424 0 0 0-1.992 0c-.55.542-.55 1.42 0 1.961l6.076 5.983z"/>
    </g>
</svg>
