<svg xmlns="http://www.w3.org/2000/svg" width="40" height="40" viewBox="0 0 40 40">
    <g fill="#63666A" fill-rule="evenodd">
        <path d="M11.792 28.38c-.369 0-.716-.143-.977-.404a1.386 1.386 0 0 1 0-1.956L26.17 10.653c.261-.262.608-.406.978-.406a1.386 1.386 0 0 1 .977 2.361L12.77 27.977a1.37 1.37 0 0 1-.978.405"/>
        <path d="M29.563 24.245c-.37 0-.716-.144-.978-.405a1.373 1.373 0 0 1-.405-.977c0-.37.144-.717.405-.978l5.303-5.302a8.04 8.04 0 0 0 2.372-5.723 8.045 8.045 0 0 0-2.372-5.725 8.047 8.047 0 0 0-5.725-2.37 8.047 8.047 0 0 0-5.725 2.37l-5.303 5.302a1.374 1.374 0 0 1-.977.405c-.37 0-.716-.144-.978-.405a1.373 1.373 0 0 1-.405-.977c0-.369.144-.716.405-.977l5.303-5.302A10.79 10.79 0 0 1 28.163 0a10.79 10.79 0 0 1 7.68 3.18 10.788 10.788 0 0 1 3.181 7.68c0 2.9-1.13 5.627-3.18 7.678l-5.304 5.303c-.26.26-.608.404-.977.404M10.852 39.024c-2.899 0-5.625-1.13-7.676-3.18A10.785 10.785 0 0 1 0 28.165c0-2.903 1.128-5.63 3.176-7.678l5.303-5.302c.26-.261.608-.405.978-.405.369 0 .716.144.977.405.26.26.405.608.405.977s-.144.716-.405.977l-5.302 5.302a8.038 8.038 0 0 0-2.368 5.724c0 2.165.84 4.198 2.368 5.725a8.04 8.04 0 0 0 5.724 2.371 8.04 8.04 0 0 0 5.724-2.372l5.303-5.302c.26-.26.608-.404.977-.404a1.377 1.377 0 0 1 1.384 1.381c0 .37-.144.716-.405.977l-5.303 5.303a10.79 10.79 0 0 1-7.68 3.18h-.004z"/>
    </g>
</svg>
