<svg xmlns="http://www.w3.org/2000/svg" width="40" height="40" viewBox="0 0 40 40">
    <g fill="#63666A" fill-rule="evenodd">
        <path d="M37.345 34.607l-5.31-3.147V23.83l5.31-3.147v13.925zm.65-17.397l-5.945 3.524a.01.01 0 0 1-.015-.008v-1.037a3.992 3.992 0 0 0-3.992-3.991h-6.795a.01.01 0 0 1-.009-.01v-3.875c0-.738.599-1.337 1.337-1.337h4.371a.01.01 0 0 1 .01.007c.549 1.541 2.023 2.56 3.75 2.56h5.227c2.32 0 4.193-1.9 4.06-4.216a3.987 3.987 0 0 0-3.976-3.749h-5.31a3.989 3.989 0 0 0-3.752 2.649.01.01 0 0 1-.009.006h-4.371a3.992 3.992 0 0 0-3.992 3.992v3.963a.01.01 0 0 1-.01.01H15.94a.01.01 0 0 1-.01-.01V14.38a3.992 3.992 0 0 0-3.992-3.992h-5.29a3.992 3.992 0 0 0-3.992 3.992v1.54c0 .003-.003.005-.006.007A3.984 3.984 0 0 0 0 19.68V30.3c0 .082.003.164.008.245L0 30.85v4.75a3.992 3.992 0 0 0 3.992 3.992h24.051a3.992 3.992 0 0 0 3.992-3.992v-1.036a.01.01 0 0 1 .015-.008l5.946 3.523A1.328 1.328 0 0 0 40 36.936V18.352a1.328 1.328 0 0 0-2.004-1.142zM29.382 35.61c0 .732-.596 1.327-1.328 1.327H3.983a1.329 1.329 0 0 1-1.328-1.327v-15.93c0-.731.595-1.327 1.327-1.327h24.071c.732 0 1.328.596 1.328 1.328v15.929zM6.637 13.131h5.31c.732 0 1.327.507 1.327 1.24v1.327H5.31V14.37c0-.732.595-1.239 1.327-1.239zm24.07-5.31h5.31c.733 0 1.328.507 1.328 1.24 0 .731-.595 1.327-1.327 1.327h-5.31A1.329 1.329 0 0 1 29.38 9.06c0-.732.595-1.239 1.327-1.239z"/>
        <path d="M18.584 31.627h5.487v-5.31h-5.487v5.31zm6.814-7.965h-8.141c-.733 0-1.328.594-1.328 1.328v7.964c0 .733.595 1.328 1.328 1.328h8.141c.733 0 1.328-.595 1.328-1.328V24.99c0-.734-.595-1.328-1.328-1.328zM9.292 31.627H6.637a1.327 1.327 0 1 0 0 2.655h2.655a1.328 1.328 0 0 0 0-2.655M9.292 26.317H6.637a1.327 1.327 0 1 0 0 2.655h2.655a1.327 1.327 0 0 0 0-2.655"/>
    </g>
</svg>
