<?xml version="1.0" encoding="utf-8"?><svg xmlns="http://www.w3.org/2000/svg" xmlns:xlink="http://www.w3.org/1999/xlink"><symbol viewBox="0 0 20 20" id="copyright" xmlns="http://www.w3.org/2000/svg"><path d="M13.883 5.424L12.598 7.12c-.763-.586-1.436-.803-2.263-.803-1.406 0-2.506 1.017-2.506 3.668 0 2.558 1.008 3.637 2.476 3.637 1.009 0 1.743-.34 2.509-.957l1.191 1.758c-.979.893-2.232 1.54-3.882 1.54-3.12 0-5.23-2.126-5.23-5.978 0-3.791 2.294-5.979 5.198-5.979 1.56 0 2.752.524 3.792 1.418M2.386 10.015c0 4.716 3.27 7.889 7.645 7.889 4.34 0 7.613-3.173 7.613-7.889 0-4.715-3.272-7.95-7.613-7.95-4.374 0-7.645 3.235-7.645 7.95m17.614 0C20 15.87 15.566 20 10.03 20 4.497 20 0 15.87 0 10.015 0 4.129 4.496 0 10.03 0 15.567 0 20 4.13 20 10.015"/></symbol><symbol viewBox="0 0 20 20" id="lupe" xmlns="http://www.w3.org/2000/svg"><path d="M8.126 13.126c-2.762 0-5-2.235-5-5 0-2.762 2.234-5 5-5 2.762 0 5 2.234 5 5 0 2.762-2.235 5-5 5m11.602 4.168L15.833 13.4a.937.937 0 0 0-.664-.273h-.637a8.086 8.086 0 0 0 1.72-5A8.124 8.124 0 0 0 8.125 0 8.124 8.124 0 0 0 0 8.126a8.124 8.124 0 0 0 8.126 8.125c1.886 0 3.621-.64 5-1.719v.637c0 .25.098.488.273.664l3.895 3.895a.934.934 0 0 0 1.325 0l1.105-1.106a.942.942 0 0 0 .004-1.328"/></symbol><symbol viewBox="0 0 19 20" id="sprache" xmlns="http://www.w3.org/2000/svg"><path d="M.74 13.873c1.095 2.74 3.313 4.856 6.053 5.712-.935-1.363-1.579-3.416-1.916-5.712H.74zm11.475 5.712c2.735-.856 4.957-2.973 6.052-5.712H14.13c-.337 2.296-.98 4.349-1.915 5.712zm-6.104-5.712c.555 3.602 1.866 6.13 3.391 6.13 1.524 0 2.835-2.528 3.39-6.13h-6.78zm-1.514-3.871c0-.867.046-1.734.127-2.581H.33A10.591 10.591 0 0 0 0 10c0 .896.122 1.755.33 2.582h4.39a28.58 28.58 0 0 1-.123-2.581zM18.674 7.42H14.28c.081.847.127 1.714.127 2.58 0 .868-.046 1.735-.127 2.582h4.391c.211-.827.33-1.686.33-2.581s-.119-1.754-.326-2.581zM6.79.42C4.053 1.274 1.831 3.39.74 6.13h4.138C5.21 3.835 5.854 1.783 6.79.42zm11.475 5.71C17.168 3.391 14.95 1.274 12.211.42c.934 1.363 1.578 3.415 1.915 5.71h4.138zm-12.44 3.872c0 .895.045 1.754.126 2.58h7.1a26.73 26.73 0 0 0 0-5.161h-7.1A26.44 26.44 0 0 0 5.823 10zm7.068-3.872C12.337 2.53 11.026 0 9.502 0c-1.525 0-2.836 2.53-3.39 6.13h6.78z"/></symbol></svg>