<?xml version="1.0" encoding="utf-8"?><svg xmlns="http://www.w3.org/2000/svg" xmlns:xlink="http://www.w3.org/1999/xlink"><symbol viewBox="0 0 40 40" id="download" xmlns="http://www.w3.org/2000/svg"><path d="M38.591 16.041c-.778 0-1.408.64-1.408 1.429v19.674H2.817V17.47c0-.789-.63-1.429-1.408-1.429A1.42 1.42 0 0 0 0 17.47v21.102C0 39.362.631 40 1.409 40H38.59c.78 0 1.41-.639 1.41-1.428V17.47a1.42 1.42 0 0 0-1.409-1.429"/><path d="M19.502 26.581a1.42 1.42 0 0 0 1.992 0l6.08-5.986c.55-.542.55-1.42 0-1.962a1.425 1.425 0 0 0-1.992 0l-3.676 3.619.001-20.865C21.907.621 21.277 0 20.5 0c-.778 0-1.409.621-1.409 1.387v20.865l-3.672-3.615a1.424 1.424 0 0 0-1.992 0c-.55.542-.55 1.42 0 1.961l6.076 5.983z"/></symbol><symbol viewBox="0 0 40 40" id="link" xmlns="http://www.w3.org/2000/svg"><path d="M11.792 28.38c-.369 0-.716-.143-.977-.404a1.386 1.386 0 0 1 0-1.956L26.17 10.653a1.37 1.37 0 0 1 .978-.406 1.386 1.386 0 0 1 .977 2.361L12.77 27.977a1.37 1.37 0 0 1-.978.405"/><path d="M29.563 24.245c-.37 0-.716-.144-.978-.405a1.373 1.373 0 0 1-.405-.977c0-.37.144-.717.405-.978l5.303-5.302a8.04 8.04 0 0 0 2.372-5.723 8.045 8.045 0 0 0-2.372-5.725 8.047 8.047 0 0 0-5.725-2.37 8.047 8.047 0 0 0-5.725 2.37l-5.303 5.302a1.374 1.374 0 0 1-.977.405c-.37 0-.716-.144-.978-.405a1.373 1.373 0 0 1-.405-.977c0-.369.144-.716.405-.977l5.303-5.302A10.79 10.79 0 0 1 28.163 0a10.79 10.79 0 0 1 7.68 3.18 10.788 10.788 0 0 1 3.181 7.68c0 2.9-1.13 5.627-3.18 7.678l-5.304 5.303c-.26.26-.608.404-.977.404M10.852 39.024c-2.899 0-5.625-1.13-7.676-3.18A10.785 10.785 0 0 1 0 28.165c0-2.903 1.128-5.63 3.176-7.678l5.303-5.302c.26-.261.608-.405.978-.405.369 0 .716.144.977.405.26.26.405.608.405.977s-.144.716-.405.977l-5.302 5.302a8.038 8.038 0 0 0-2.368 5.724c0 2.165.84 4.198 2.368 5.725a8.04 8.04 0 0 0 5.724 2.371 8.04 8.04 0 0 0 5.724-2.372l5.303-5.302c.26-.26.608-.404.977-.404a1.377 1.377 0 0 1 1.384 1.381c0 .37-.144.716-.405.977l-5.303 5.303a10.79 10.79 0 0 1-7.68 3.18h-.004z"/></symbol><symbol viewBox="0 0 40 40" id="video" xmlns="http://www.w3.org/2000/svg"><path d="M37.345 34.607l-5.31-3.147v-7.63l5.31-3.147v13.925zm.65-17.397l-5.945 3.524a.01.01 0 0 1-.015-.008v-1.037a3.992 3.992 0 0 0-3.992-3.991h-6.795a.01.01 0 0 1-.009-.01v-3.875c0-.738.599-1.337 1.337-1.337h4.371a.01.01 0 0 1 .01.007c.549 1.541 2.023 2.56 3.75 2.56h5.227c2.32 0 4.193-1.9 4.06-4.216a3.987 3.987 0 0 0-3.976-3.749h-5.31a3.989 3.989 0 0 0-3.752 2.649.01.01 0 0 1-.009.006h-4.371a3.992 3.992 0 0 0-3.992 3.992v3.963a.01.01 0 0 1-.01.01H15.94a.01.01 0 0 1-.01-.01V14.38a3.992 3.992 0 0 0-3.992-3.992h-5.29a3.992 3.992 0 0 0-3.992 3.992v1.54c0 .003-.003.005-.006.007A3.984 3.984 0 0 0 0 19.68V30.3c0 .082.003.164.008.245L0 30.85v4.75a3.992 3.992 0 0 0 3.992 3.992h24.051a3.992 3.992 0 0 0 3.992-3.992v-1.036a.01.01 0 0 1 .015-.008l5.946 3.523A1.328 1.328 0 0 0 40 36.936V18.352a1.328 1.328 0 0 0-2.004-1.142zm-8.613 18.4c0 .732-.596 1.327-1.328 1.327H3.983a1.329 1.329 0 0 1-1.328-1.327V19.68c0-.731.595-1.327 1.327-1.327h24.071a1.33 1.33 0 0 1 1.328 1.328V35.61zM6.637 13.131h5.31c.732 0 1.327.507 1.327 1.24v1.327H5.31V14.37c0-.732.595-1.239 1.327-1.239zm24.07-5.31h5.31c.733 0 1.328.507 1.328 1.24 0 .731-.595 1.327-1.327 1.327h-5.31A1.329 1.329 0 0 1 29.38 9.06c0-.732.595-1.239 1.327-1.239z"/><path d="M18.584 31.627h5.487v-5.31h-5.487v5.31zm6.814-7.965h-8.141c-.733 0-1.328.594-1.328 1.328v7.964c0 .733.595 1.328 1.328 1.328h8.141c.733 0 1.328-.595 1.328-1.328V24.99c0-.734-.595-1.328-1.328-1.328zM9.292 31.627H6.637a1.327 1.327 0 1 0 0 2.655h2.655a1.328 1.328 0 0 0 0-2.655m0-5.31H6.637a1.327 1.327 0 1 0 0 2.655h2.655a1.327 1.327 0 0 0 0-2.655"/></symbol></svg>