<?xml version="1.0" encoding="utf-8"?><svg xmlns="http://www.w3.org/2000/svg" xmlns:xlink="http://www.w3.org/1999/xlink"><symbol viewBox="0 0 15 10" id="anchor" xmlns="http://www.w3.org/2000/svg"><path d="M6.917 9.735L.24 2.4a.97.97 0 0 1 0-1.28l.78-.856a.773.773 0 0 1 1.164 0L7.5 6.076 12.815.264a.773.773 0 0 1 1.165.002l.779.855a.97.97 0 0 1 0 1.28L8.083 9.736a.773.773 0 0 1-1.166 0"/></symbol><symbol viewBox="0 0 12 18" id="arrow" xmlns="http://www.w3.org/2000/svg"><path d="M11.682 9.7l-8.8 8.01a1.164 1.164 0 0 1-1.537 0l-1.027-.934a.928.928 0 0 1-.002-1.397L7.291 9 .317 2.622a.927.927 0 0 1 .002-1.398L1.345.29a1.164 1.164 0 0 1 1.537 0l8.8 8.01a.928.928 0 0 1 0 1.4"/></symbol><symbol viewBox="0 0 15 12" id="arrow-back" xmlns="http://www.w3.org/2000/svg"><defs><path id="ca" d="M5.364.17L.188 4.882a.545.545 0 0 0 0 .823l5.176 4.712a.684.684 0 0 0 .905 0l.603-.549a.545.545 0 0 0 0-.822L2.771 5.294l4.103-3.752A.546.546 0 0 0 6.872.72L6.27.17A.673.673 0 0 0 5.816 0a.677.677 0 0 0-.452.17z"/></defs><use xlink:href="#ca"/><path d="M14.999 7.016C14.993 5.352 13.814 4 12.365 4h-4.86A.505.505 0 0 0 7 4.505v.947c0 .279.226.505.505.505h4.86c.32 0 .678.459.678 1.072v4.466c0 .278.226.505.505.505h.947a.505.505 0 0 0 .505-.505V7.016h-.001z"/></symbol><symbol viewBox="0 0 17 17" id="close" xmlns="http://www.w3.org/2000/svg"><path d="M16.69.311a1.053 1.053 0 0 0-1.495 0L8.5 7.006 1.805.31a1.053 1.053 0 0 0-1.494 0 1.052 1.052 0 0 0 0 1.494l6.695 6.694-6.695 6.694a1.052 1.052 0 0 0 0 1.494c.203.204.477.313.743.313s.54-.102.743-.313l6.695-6.694 6.696 6.694c.203.204.477.313.742.313.274 0 .54-.102.744-.313a1.052 1.052 0 0 0 0-1.494L9.994 8.5l6.695-6.694a1.053 1.053 0 0 0 0-1.494"/></symbol><symbol viewBox="0 0 20 20" id="copyright" xmlns="http://www.w3.org/2000/svg"><path d="M13.883 5.424L12.598 7.12c-.763-.586-1.436-.803-2.263-.803-1.406 0-2.506 1.017-2.506 3.668 0 2.558 1.008 3.637 2.476 3.637 1.009 0 1.743-.34 2.509-.957l1.191 1.758c-.979.893-2.232 1.54-3.882 1.54-3.12 0-5.23-2.126-5.23-5.978 0-3.791 2.294-5.979 5.198-5.979 1.56 0 2.752.524 3.792 1.418M2.386 10.015c0 4.716 3.27 7.889 7.645 7.889 4.34 0 7.613-3.173 7.613-7.889 0-4.715-3.272-7.95-7.613-7.95-4.374 0-7.645 3.235-7.645 7.95m17.614 0C20 15.87 15.566 20 10.03 20 4.497 20 0 15.87 0 10.015 0 4.129 4.496 0 10.03 0 15.567 0 20 4.13 20 10.015"/></symbol><symbol viewBox="0 0 20 20" id="lupe" xmlns="http://www.w3.org/2000/svg"><path d="M8.126 13.126c-2.762 0-5-2.235-5-5 0-2.762 2.234-5 5-5 2.762 0 5 2.234 5 5 0 2.762-2.235 5-5 5m11.602 4.168L15.833 13.4a.937.937 0 0 0-.664-.273h-.637a8.086 8.086 0 0 0 1.72-5A8.124 8.124 0 0 0 8.125 0 8.124 8.124 0 0 0 0 8.126a8.124 8.124 0 0 0 8.126 8.125c1.886 0 3.621-.64 5-1.719v.637c0 .25.098.488.273.664l3.895 3.895a.934.934 0 0 0 1.325 0l1.105-1.106a.942.942 0 0 0 .004-1.328"/></symbol><symbol viewBox="0 0 17 17" id="plus" xmlns="http://www.w3.org/2000/svg"><defs><path id="ga" d="M7.949.224a.752.752 0 0 0-.224.548v6.949H.772a.78.78 0 0 0-.548.224.751.751 0 0 0-.224.547c0 .431.345.776.776.776l6.944.008v6.949c0 .43.345.775.775.775a.773.773 0 0 0 .776-.775l.001-6.949h6.953c.43 0 .775-.347.775-.776a.773.773 0 0 0-.775-.776H9.272V.775A.777.777 0 1 0 7.949.224z"/></defs><use xlink:href="#ga"/></symbol><symbol viewBox="0 0 107 56" id="quote" xmlns="http://www.w3.org/2000/svg"><path d="M42.702 56v-8c2.522-1.37 4.414-3.837 5.677-7.405 1.26-3.568 1.892-8.27 1.892-14.108V24H39.999V0h24v17.945c0 10.882-1.783 19.496-5.35 25.838C55.08 50.124 49.765 54.197 42.702 56m-40 0v-8c2.523-1.37 4.415-3.837 5.677-7.405 1.26-3.568 1.89-8.27 1.89-14.108V24H0V0h24v17.945c0 10.882-1.782 19.496-5.35 25.838C15.08 50.124 9.765 54.197 2.703 56M79 12.39h28v-1H79z"/></symbol></svg>