<svg xmlns="http://www.w3.org/2000/svg" width="20" height="20" viewBox="0 0 20 20">
    <path fill="#FFF" fill-rule="evenodd" d="M13.883 5.424L12.598 7.12c-.763-.586-1.436-.803-2.263-.803-1.406 0-2.506 1.017-2.506 3.668 0 2.558 1.008 3.637 2.476 3.637 1.009 0 1.743-.34 2.509-.957l1.191 1.758c-.979.893-2.232 1.54-3.882 1.54-3.12 0-5.23-2.126-5.23-5.978 0-3.791 2.294-5.979 5.198-5.979 1.56 0 2.752.524 3.792 1.418M2.386 10.015c0 4.716 3.27 7.889 7.645 7.889 4.34 0 7.613-3.173 7.613-7.889 0-4.715-3.272-7.95-7.613-7.95-4.374 0-7.645 3.235-7.645 7.95m17.614 0C20 15.87 15.566 20 10.03 20 4.497 20 0 15.87 0 10.015 0 4.129 4.496 0 10.03 0 15.567 0 20 4.13 20 10.015"/>
</svg>
