<svg xmlns="http://www.w3.org/2000/svg" width="107" height="56" viewBox="0 0 107 56">
    <g fill="#60810E" fill-opacity=".35" fill-rule="evenodd">
        <path d="M42.702 56v-8c2.522-1.37 4.414-3.837 5.677-7.405 1.26-3.568 1.892-8.27 1.892-14.108V24H39.999V0h24v17.945c0 10.882-1.783 19.496-5.35 25.838C55.08 50.124 49.765 54.197 42.702 56m-40 0v-8c2.523-1.37 4.415-3.837 5.677-7.405 1.26-3.568 1.89-8.27 1.89-14.108V24H0V0h24v17.945c0 10.882-1.782 19.496-5.35 25.838C15.08 50.124 9.765 54.197 2.703 56M79 12.39h28v-1H79z"/>
    </g>
</svg>
